<svg xmlns="http://www.w3.org/2000/svg" xmlns:xlink="http://www.w3.org/1999/xlink" viewBox="0,0,256,256" width="32px" height="32px" fill-rule="nonzero"><g fill="#91cb38" fill-rule="nonzero" stroke="none" stroke-width="1" stroke-linecap="butt" stroke-linejoin="miter" stroke-miterlimit="10" stroke-dasharray="" stroke-dashoffset="0" font-family="none" font-weight="none" font-size="none" text-anchor="none" style="mix-blend-mode: normal"><g transform="scale(8,8)"><path d="M16,3c-7.19922,0 -13,5.80078 -13,13c0,7.19922 5.80078,13 13,13c7.19922,0 13,-5.80078 13,-13c0,-1.39844 -0.1875,-2.79297 -0.6875,-4.09375l-1.625,1.59375c0.19922,0.80078 0.3125,1.60156 0.3125,2.5c0,6.10156 -4.89844,11 -11,11c-6.10156,0 -11,-4.89844 -11,-11c0,-6.10156 4.89844,-11 11,-11c3,0 5.69531,1.19531 7.59375,3.09375l1.40625,-1.40625c-2.30078,-2.30078 -5.5,-3.6875 -9,-3.6875zM27.28125,7.28125l-11.28125,11.28125l-4.28125,-4.28125l-1.4375,1.4375l5,5l0.71875,0.6875l0.71875,-0.6875l12,-12z"></path></g></g></svg>